# xmcd
#
# Track frame offsets: 
#        182
#        23055
#        37380
#        53127
#        64560
#        83767
#        94772
#        131185
#        140370
#        150537
#        162542
#        176395
#        188832
#        199920
#        211840
#        269665
#
# Disc length: 3764 seconds
#
# Revision: 8
# Processed by: cddbd v1.5.2PL0 Copyright (c) Steve Scherf et al.
# Submitted via: ExactAudioCopyFreeDBPlugin 1.0
#
DISCID=e50eb210
DTITLE=Various Artist - Blues Collection Vol1
DYEAR=1991
DGENRE=Blues
TTITLE0=Eric Clapton and The Yardbirds - First Time I Met The Blues
TTITLE1=John Mayall - Why Worry
TTITLE2=Eric Clapton and The Yardbirds - Louise
TTITLE3=B.B. King - Playin' The Cost To The Boss
TTITLE4=Jeff Beck - New York City Blues
TTITLE5=Canned Heat - Spoonful
TTITLE6=Big Joe Turner - Roll Me Baby
TTITLE7=Canned Heat - Big Road Blues
TTITLE8=Muddy Waters - Mean Red Spinner
TTITLE9=Johnny Winter - Livin' In The Blues
TTITLE10=Jeff Beck - Jeff's Blues
TTITLE11=Howlin' Wolf - My Mind Is Ramblin'
TTITLE12=Ray Charles - A Sentimental Blues
TTITLE13=Jimmy Reed - Honest I Do
TTITLE14=George Benson - All Blues
TTITLE15=John Lee Hooker - Hopo Blues
EXTD=
EXTT0=Eric Clapton and The Yardbirds
EXTT1=John Mayall
EXTT2=Eric Clapton and The Yardbirds
EXTT3=B. B. King
EXTT4=Jeff Beck
EXTT5=Canned Heat
EXTT6=Big Joe Turner
EXTT7=Canned Heat
EXTT8=Muddy Waters
EXTT9=Johnny Winter
EXTT10=Jeff Beck
EXTT11=Howlin' Wolf
EXTT12=Ray Charles
EXTT13=Jimmy Reed
EXTT14=George Benson
EXTT15=John Lee Hooker
PLAYORDER=
